<svg version="1.1" id="Layer_1" xmlns="http://www.w3.org/2000/svg" xmlns:xlink="http://www.w3.org/1999/xlink" x="0px" y="0px"
	 width="100%" viewBox="0 0 1024 1024" enable-background="new 0 0 1024 1024" xml:space="preserve">
<path fill="#000000" opacity="1.000000" stroke="none" 
	d="
M592.422241,443.580261 
	C607.239563,458.243591 621.813782,472.653503 636.370178,487.081390 
	C636.701782,487.410065 636.830750,487.943207 637.384583,489.028137 
	C632.753113,492.683777 627.557495,495.528229 622.133484,497.911011 
	C620.118835,498.796112 618.825256,496.761292 617.539917,495.547455 
	C602.397522,481.247620 587.285461,466.915741 572.164490,452.593231 
	C571.317871,451.791321 570.347229,451.089203 569.633545,450.183624 
	C566.885437,446.696625 564.296875,446.672180 560.423096,449.109314 
	C551.415222,454.776581 542.298767,460.323700 532.496216,464.622162 
	C520.224121,470.003510 508.175751,469.569305 496.439117,463.291870 
	C487.630524,458.580505 478.939270,453.635132 470.356995,448.523285 
	C467.422455,446.775421 465.557312,446.923218 463.017792,449.288696 
	C448.999573,462.345856 434.773438,475.179352 420.677856,488.153992 
	C396.865997,510.072205 371.899689,530.536926 344.999634,548.585388 
	C343.649445,549.491272 342.089600,550.190552 340.972961,552.485779 
	C395.557434,552.485779 449.762329,552.485779 504.520233,552.485779 
	C503.391296,555.686584 501.117676,555.925171 499.232697,556.641113 
	C477.098816,565.048462 454.146729,570.647949 431.211945,576.260498 
	C392.924866,585.630127 354.116791,592.306091 315.157532,598.119629 
	C302.834534,599.958557 290.425568,601.217651 278.093536,603.001831 
	C274.839233,603.472656 274.055267,601.558105 273.036499,599.426392 
	C266.456055,585.657532 263.075348,570.912354 259.787628,556.134277 
	C256.192810,539.975952 254.753677,523.538635 255.104813,507.084503 
	C256.555725,439.096649 279.782532,379.572601 326.124054,329.583496 
	C362.324707,290.533417 406.747833,265.092712 458.368530,252.269135 
	C482.605560,246.248184 507.419434,243.840363 532.167358,245.981232 
	C604.070984,252.201431 665.043579,281.071930 712.812378,336.098907 
	C715.456909,339.145264 716.260498,341.354858 713.728943,345.110504 
	C707.930054,353.713531 704.392456,363.493866 700.585266,373.096954 
	C699.865601,374.912109 699.511658,376.947693 697.429016,378.157593 
	C695.721130,375.326965 696.065002,372.074219 695.011658,367.870178 
	C657.926514,389.920258 621.687988,412.302429 585.526428,435.222107 
	C587.278748,438.881714 590.063416,440.836884 592.422241,443.580261 
M421.404938,386.025909 
	C448.196625,400.563416 475.104279,414.893005 501.721222,429.743683 
	C511.952820,435.452362 521.071533,435.010986 531.316345,429.543945 
	C584.666565,401.074188 637.077332,370.903931 690.259827,342.135712 
	C691.370361,341.535004 692.826904,341.201141 693.089355,339.425659 
	C688.901062,334.034912 682.867004,334.038239 676.826843,334.035858 
	C571.010254,333.994537 465.193665,333.949097 359.377075,333.911194 
	C355.211426,333.909698 351.039734,333.846741 346.881775,334.043030 
	C342.645844,334.242981 339.412048,336.111969 337.678345,340.238220 
	C365.557892,355.491302 393.155884,370.590302 421.404938,386.025909 
M335.345490,456.499939 
	C335.345490,485.687469 335.345490,514.875000 335.345490,544.062500 
	C335.829193,544.212524 336.312897,544.362488 336.796600,544.512512 
	C372.691772,507.575317 410.287323,472.357635 447.384735,435.211823 
	C409.987396,412.888184 374.146790,389.758911 336.267242,368.670135 
	C335.216766,397.789215 335.408691,426.646820 335.345490,456.499939 
M301.243622,488.612793 
	C298.888153,491.789856 296.556274,494.988739 292.346039,497.244415 
	C296.841492,498.490753 299.076721,501.220978 300.860809,505.508698 
	C302.395233,500.691742 305.278809,498.610443 309.579956,496.873779 
	C305.402649,495.005157 302.630798,492.769806 301.243622,488.612793 
M514.321411,279.005585 
	C511.485809,280.386200 510.277679,283.614532 506.657776,284.900391 
	C509.840210,286.542572 511.480255,288.866821 513.680481,290.792450 
	C515.824951,288.777710 517.836914,286.887421 520.071533,284.788025 
	C517.995972,283.030701 515.981201,281.560028 514.321411,279.005585 
M428.619934,295.013885 
	C429.060883,299.570587 431.309387,301.562012 434.219452,299.879852 
	C436.319061,298.666168 437.656494,296.676361 436.070618,294.505127 
	C434.008514,291.681976 431.363373,291.703735 428.619934,295.013885 
M306.736664,417.568909 
	C307.680939,415.465240 306.919739,414.027893 304.933044,413.149292 
	C303.227356,412.394989 302.047913,413.329437 301.101501,414.588593 
	C300.189850,415.801483 300.226440,417.098572 301.285828,418.213348 
	C302.992004,420.008728 304.729095,419.989624 306.736664,417.568909 
z"/>
<path fill="#000000" opacity="1.000000" stroke="none" 
	d="
M710.234741,514.242065 
	C724.920959,498.738647 738.411743,482.654236 751.760559,466.459229 
	C754.393616,463.264709 756.394104,462.544067 759.344299,465.522797 
	C759.694336,465.876129 760.064758,466.260254 760.502625,466.468262 
	C773.066589,472.436096 774.862000,483.649292 775.394470,495.876190 
	C777.028931,533.405945 772.270325,569.839478 758.490845,605.003174 
	C739.550781,653.335999 709.088257,692.509399 666.884888,722.761719 
	C635.639771,745.159119 601.325928,760.112976 563.485168,766.798096 
	C523.457581,773.869507 484.007263,772.711365 445.664612,757.672302 
	C444.428192,757.187317 443.207886,756.647827 442.026794,756.042542 
	C441.625885,755.837036 441.369202,755.350220 440.166840,754.014893 
	C510.025757,718.913391 574.694824,677.047668 628.051758,619.595093 
	C612.715210,631.538818 597.371643,643.504150 581.030090,654.069336 
	C510.574707,699.620422 435.898193,736.340881 355.079987,759.532410 
	C314.645508,771.135437 273.209167,777.294250 230.949051,776.278748 
	C226.354156,776.168396 221.772034,775.526428 217.204712,775.132812 
	C217.226028,772.991577 218.589462,773.010742 219.645630,772.845032 
	C258.521210,766.748230 296.176483,755.873047 333.519104,743.778748 
	C387.801331,726.197937 440.560608,704.833313 491.191162,678.528076 
	C568.289246,638.471680 638.605652,589.011108 698.997375,526.102478 
	C702.687744,522.258362 706.321899,518.360107 710.234741,514.242065 
M711.954895,619.787354 
	C712.785828,619.358582 713.616699,618.929871 715.565918,617.924072 
	C703.243713,614.740601 696.694458,606.667908 692.364197,595.922668 
	C687.914551,606.072632 681.718018,613.901184 671.131653,618.339600 
	C682.414612,622.205872 688.491760,630.003052 692.347961,640.473694 
	C696.190796,630.762024 701.513184,623.253723 711.954895,619.787354 
M596.951965,706.232605 
	C597.777771,708.274780 599.132446,709.639343 601.488342,709.232544 
	C602.711975,709.021240 603.475037,708.055664 603.699585,706.794983 
	C604.002991,705.091553 603.245605,703.814819 601.802124,703.074768 
	C599.076965,701.677368 597.869751,703.461487 596.951965,706.232605 
z"/>
<path fill="#000000" opacity="1.000000" stroke="none" 
	d="
M584.046387,208.716187 
	C617.809448,216.149185 648.733887,229.462189 677.742371,247.270462 
	C700.005798,260.937866 720.025330,277.453156 737.967041,296.455536 
	C743.058960,301.848419 742.972717,301.859344 737.963745,307.047729 
	C733.682251,311.482422 729.373596,315.902283 725.319092,320.540405 
	C722.941467,323.260284 721.353394,323.071014 718.967590,320.475494 
	C699.085571,298.845795 676.235535,280.867676 650.638672,266.533875 
	C620.583679,249.703522 588.472534,238.764496 554.234985,234.198639 
	C536.377869,231.817245 518.470093,230.472443 500.483459,231.480057 
	C462.746460,233.594131 427.121399,243.511917 393.507843,260.847412 
	C327.797363,294.736237 283.186401,347.096985 257.485657,415.992798 
	C247.415878,442.986725 242.146240,470.902161 241.010208,499.769196 
	C239.749924,531.793274 244.541580,562.697449 255.336823,592.765930 
	C256.291992,595.426331 257.437286,598.021667 258.569977,600.614197 
	C259.710083,603.223633 259.073730,604.866150 256.130493,605.175598 
	C248.861496,605.939941 241.574905,606.546875 234.316071,607.394287 
	C231.271088,607.749878 229.837311,606.441223 228.709335,603.775818 
	C221.730957,587.285889 217.502945,570.035950 214.769409,552.430969 
	C212.189011,535.812317 211.262299,519.058105 211.612350,502.213867 
	C212.651718,452.197937 225.081512,405.213989 249.192520,361.422089 
	C268.675659,326.035645 293.553406,294.924225 325.083130,269.498871 
	C366.036041,236.474762 412.341827,214.817123 464.268463,205.637909 
	C504.237885,198.572433 544.043945,199.695862 584.046387,208.716187 
z"/>
<path fill="#000000" opacity="1.000000" stroke="none" 
	d="
M741.507202,419.538757 
	C732.126587,425.930969 722.962952,432.008240 713.968567,438.326416 
	C710.416504,440.821594 708.260681,440.196899 705.823914,436.714600 
	C699.097839,427.102600 698.976379,427.187592 708.778809,421.073334 
	C715.542969,416.854187 715.713074,416.801392 713.381287,409.282349 
	C702.384216,373.821106 724.333191,330.196930 769.309509,323.999054 
	C807.049316,318.798340 838.973328,344.496918 844.248718,380.727875 
	C849.702148,418.181152 823.771362,450.189850 786.060059,453.235931 
	C783.680847,453.428131 782.403625,454.192047 781.809204,456.483826 
	C781.274231,458.546021 780.933472,460.721191 779.123718,463.035828 
	C773.999207,461.295502 768.680847,459.533478 763.394531,457.680237 
	C759.045410,456.155579 762.664978,452.740601 761.261780,449.821228 
	C759.456665,451.137634 757.543640,452.492279 755.672791,453.902802 
	C713.670044,485.571320 668.844299,512.808899 622.670410,537.824646 
	C550.556335,576.894165 473.433746,602.235779 393.739838,620.448120 
	C367.632599,626.414368 341.310577,631.155334 314.833038,634.928711 
	C296.411591,637.554016 277.841278,639.118835 259.256531,640.474426 
	C244.428787,641.555969 229.616592,641.515930 214.812042,641.170471 
	C199.699783,640.817749 184.673203,638.888000 169.663513,637.075867 
	C168.396164,636.922852 167.175659,636.381775 164.704117,635.663879 
	C172.574554,633.281128 179.481750,632.754395 186.262650,631.790039 
	C208.121048,628.681396 229.999100,625.691528 251.906891,622.954590 
	C277.783936,619.721619 303.558990,615.848999 329.305817,611.719543 
	C425.108307,596.354187 518.142273,571.477539 607.305420,532.629883 
	C666.932556,506.650787 718.043152,469.092072 762.410278,421.918884 
	C771.415161,412.344421 780.325500,402.681030 788.797241,392.369293 
	C776.043640,396.642365 763.290039,400.915405 750.508667,405.197754 
	C750.226929,407.537781 753.330078,406.898224 753.281494,409.627106 
	C750.776917,413.638824 745.900574,416.057495 741.507202,419.538757 
M800.859558,347.624878 
	C791.121338,342.657532 780.960571,340.760468 769.991882,342.296967 
	C750.313782,345.053467 731.536804,363.980469 729.397278,383.742676 
	C728.796570,389.291382 729.534851,390.036133 734.808777,388.732086 
	C758.345520,382.912354 781.869019,377.039337 805.399170,371.193146 
	C809.794312,370.101135 814.197998,369.043762 819.425354,367.768524 
	C812.107788,390.776489 802.799194,411.836609 793.756042,432.842041 
	C795.159912,433.886810 796.108093,433.487976 797.052856,433.190460 
	C812.749084,428.246704 826.146362,410.353241 826.679321,394.016388 
	C827.343445,373.658539 818.812561,358.451477 800.859558,347.624878 
z"/>
<path fill="#000000" opacity="1.000000" stroke="none" 
	d="
M401.931793,790.220459 
	C394.402649,786.472717 386.911163,783.402344 379.806519,778.133057 
	C385.528442,774.572754 391.251587,773.303345 396.454254,770.886597 
	C401.585205,768.503174 406.979523,766.661560 412.008881,764.093750 
	C415.034241,762.549011 417.491516,762.663757 420.459961,764.013367 
	C439.014435,772.449402 458.166107,779.031555 478.411896,782.052795 
	C495.869446,784.657837 513.331665,785.919617 531.064392,785.030579 
	C607.186218,781.213928 669.885925,749.355957 720.573486,693.582642 
	C752.656921,658.280151 773.003235,616.405823 783.655579,569.864441 
	C788.524536,548.591553 792.040161,527.148193 791.581482,505.252502 
	C791.425354,497.795471 790.421692,490.357208 789.845032,482.907318 
	C789.681152,480.790314 789.072388,478.319672 792.109741,477.651001 
	C800.688599,475.762390 809.083618,473.277069 817.303650,469.375885 
	C819.608826,475.940826 819.794312,482.129364 820.150024,488.150757 
	C824.218567,557.016724 807.502991,620.580200 769.571716,678.114929 
	C728.003235,741.166565 670.800293,783.649048 598.011353,804.559448 
	C565.007874,814.040527 531.135864,815.813782 497.081451,814.052185 
	C464.009064,812.341553 432.407166,804.155396 401.931793,790.220459 
z"/>
<path fill="#000000" opacity="1.000000" stroke="none" 
	d="
M191.996613,739.125061 
	C184.213257,739.292847 176.959091,738.996399 169.682007,737.836304 
	C170.225967,735.963806 171.660446,735.895874 172.930328,735.713867 
	C219.559662,729.029175 265.259674,718.074463 310.609741,705.575806 
	C389.979828,683.700989 466.528595,654.586182 539.345886,615.965942 
	C568.052612,600.740723 596.035339,584.290588 623.031555,566.197083 
	C628.140015,562.773254 632.847290,558.755554 637.817932,555.118835 
	C639.628052,553.794495 641.108826,551.831665 643.630432,551.554199 
	C644.301758,553.148315 643.006348,553.755920 642.259949,554.461670 
	C615.604248,579.664734 587.930176,603.606323 556.973206,623.505920 
	C515.908569,649.902832 472.060059,670.736206 426.758545,688.634949 
	C383.819122,705.600464 339.801697,719.032776 294.436584,727.780396 
	C270.942627,732.310669 247.270599,735.679443 223.377167,737.461548 
	C213.087311,738.229004 202.807358,738.923828 191.996613,739.125061 
z"/>
<path fill="#000000" opacity="1.000000" stroke="none" 
	d="
M334.149597,653.953369 
	C444.244293,626.656372 550.309631,589.965698 649.148254,533.327637 
	C648.422546,536.120422 646.247986,536.943665 644.621338,538.173950 
	C579.543091,587.396362 507.317749,622.666138 430.056824,648.146973 
	C387.188110,662.285095 343.572205,673.460571 299.073792,680.985962 
	C265.445831,686.672913 231.666321,691.482300 197.408356,690.080200 
	C190.235046,689.786621 182.867783,690.096375 175.750916,687.479553 
	C228.491714,676.418884 281.487091,666.955994 334.149597,653.953369 
z"/>
<path fill="#000000" opacity="1.000000" stroke="none" 
	d="
M380.873230,410.152740 
	C373.171570,404.204987 365.757111,398.465637 358.342651,392.726318 
	C358.703857,392.236786 359.065033,391.747253 359.426239,391.257721 
	C383.445648,406.154510 407.189240,421.478455 430.667358,437.790741 
	C428.254120,441.880768 425.935303,443.056122 421.795654,440.198395 
	C407.957001,430.645081 394.415222,420.702393 380.873230,410.152740 
z"/>
</svg>